# xmcd
#
# Track frame offsets: 
#        150
#        13703
#        28460
#        39276
#        53701
#        67494
#        80766
#        92706
#        105804
#        118432
#        130299
#        144293
#        156266
#        172603
#        184804
#        199785
#        213023
#        225264
#        237965
#        249739
#        263457
#        276182
#        288592
#        304504
#        316180
#
# Disc length: 4403 seconds
#
# Revision: 1
# Processed by: cddbd v1.5.2PL0 Copyright (c) Steve Scherf et al.
# Submitted via: ExactAudioCopy v0.99pb5
#
DISCID=5a113119
DTITLE=Various Artist - Ain't Times Hard CD3
DYEAR=2008
DGENRE=Blues
TTITLE0=Bumble Bee Slim - Hobo Jungle Blues
TTITLE1=Frank 'Springback' James - New Red Cross Blues
TTITLE2=Black Ivory King - Working For The PWA
TTITLE3=Sleepy John Estes - Government Money
TTITLE4=Peetie Wheatstraw - Working On The Project
TTITLE5=Sleepy John Estes - Hobo Jungle Blues
TTITLE6=Lonnie Johnson - Hard Times Ain't Gone No Where
TTITLE7=Robert Lee Mccoy - I Have Spent My Bonus
TTITLE8=Red Nelson - Relief Blues
TTITLE9=Big Bill Broonzy - Unemployment Stomp
TTITLE10=Peetie Wheatstraw -  Blues
TTITLE11=Son Bonds - Old Bachelor Blues
TTITLE12=Calvin Frazier - Welfare Blues
TTITLE13=George Curry - Back In My Cell Again
TTITLE14=Speckled Red - Welfare Blues
TTITLE15=Washboard Sam - CCC Blues
TTITLE16=Sampson Pittman - Welfare Blues
TTITLE17=Alfred Fields - ' Blues
TTITLE18=Gene Gilmore - Charity Blues
TTITLE19=Lonnie Johnson - Four-O-Three Blues
TTITLE20=Champion Jack Dupree - Warehouse Man Blues
TTITLE21=Memphis Minnie - Nothing In Rambling
TTITLE22=Yank Rachell - Hobo Blues
TTITLE23=Tony Hollins - Stamp Blues
TTITLE24=Ollie Shepard - Hard Times Is On Me
EXTD=
EXTT0=
EXTT1=
EXTT2=
EXTT3=
EXTT4=
EXTT5=
EXTT6=
EXTT7=
EXTT8=
EXTT9=
EXTT10=
EXTT11=
EXTT12=
EXTT13=
EXTT14=
EXTT15=
EXTT16=
EXTT17=
EXTT18=
EXTT19=
EXTT20=
EXTT21=
EXTT22=
EXTT23=
EXTT24=
PLAYORDER=
